<svg xmlns="http://www.w3.org/2000/svg" width="19.046" height="24" viewBox="0 0 19.046 24">
  <g id="Group_27697" data-name="Group 27697" transform="translate(-4.096 -1)">
    <g id="Layer_2" data-name="Layer 2" transform="translate(4.096 1)">
      <path id="Path_17805" data-name="Path 17805" d="M14.82,16.626a4.8,4.8,0,0,1-4.712-3.856.81.81,0,0,1,1.6-.256,3.2,3.2,0,0,0,6.264,0,.81.81,0,0,1,1.6.256A4.8,4.8,0,0,1,14.82,16.626Z" transform="translate(-5.297 -3.17)"/>
      <path id="Path_17806" data-name="Path 17806" d="M20.739,26.348H6.5a2.4,2.4,0,0,1-2.4-2.52l.648-13.792a2.4,2.4,0,0,1,2.4-2.3H20.091a2.4,2.4,0,0,1,2.4,2.3l.648,13.792a2.4,2.4,0,0,1-2.4,2.52Zm-13.592-17a.8.8,0,0,0-.8.8L5.7,23.908a.8.8,0,0,0,.8.84h14.24a.8.8,0,0,0,.8-.84l-.648-13.792a.8.8,0,0,0-.8-.8Z" transform="translate(-4.096 -2.348)"/>
      <path id="Path_17807" data-name="Path 17807" d="M19.6,7.2H18V5.8a3.2,3.2,0,1,0-6.4,0V7.2H10V5.8a4.8,4.8,0,0,1,9.6,0Z" transform="translate(-5.277 -1)"/>
    </g>
  </g>
</svg>
