<svg xmlns="http://www.w3.org/2000/svg" width="21.13" height="18" viewBox="0 0 21.13 18">
  <path id="Path_17808" data-name="Path 17808" d="M20.218,42.031a5.407,5.407,0,0,0-2.483-2.115,5.934,5.934,0,0,0-3.768-.255,8.042,8.042,0,0,0-3.4,1.876,8.041,8.041,0,0,0-3.4-1.876,5.931,5.931,0,0,0-3.768.255A5.407,5.407,0,0,0,.914,42.031,6.282,6.282,0,0,0,0,45.5c.1,5.706,8.543,10.9,10.234,11.878a.656.656,0,0,0,.66,0C12.587,56.4,21.028,51.208,21.13,45.5A6.282,6.282,0,0,0,20.218,42.031Zm-.408,3.447c-.033,1.845-1.254,4-3.531,6.221a32.276,32.276,0,0,1-5.712,4.335A32.255,32.255,0,0,1,4.854,51.7c-2.277-2.224-3.5-4.375-3.532-6.22a4.389,4.389,0,0,1,2.586-4.336A4.374,4.374,0,0,1,5.622,40.8,6.409,6.409,0,0,1,10.1,42.921a.657.657,0,0,0,.942,0c1.874-1.919,4.245-2.6,6.186-1.78a4.389,4.389,0,0,1,2.586,4.335Z" transform="translate(-0.001 -39.469)" fill="#2556b9"/>
</svg>
