<svg xmlns="http://www.w3.org/2000/svg" width="22.094" height="25.138" viewBox="0 0 22.094 25.138">
  <g id="Group_161390" data-name="Group 161390" transform="translate(-31)">
    <path id="Path_18031" data-name="Path 18031" d="M46.244,16.609c2.675-4.2,2.339-3.674,2.416-3.783A8.041,8.041,0,0,0,50.148,8.15a8.1,8.1,0,1,0-14.671,4.735l2.373,3.724C35.313,17,31,18.161,31,20.719c0,.933.609,2.262,3.509,3.3a23.245,23.245,0,0,0,7.538,1.121c5.3,0,11.047-1.5,11.047-4.419C53.094,18.16,48.786,17,46.244,16.609Zm-9.536-4.534-.025-.037a6.628,6.628,0,1,1,10.783-.074c-.071.094.3-.481-5.418,8.49Zm5.339,11.59c-5.793,0-9.574-1.7-9.574-2.946,0-.835,1.943-2.209,6.248-2.745l2.705,4.245a.736.736,0,0,0,1.242,0l2.705-4.245c4.3.535,6.248,1.909,6.248,2.745C51.621,21.951,47.874,23.665,42.047,23.665Z"/>
    <path id="Path_18032" data-name="Path 18032" d="M184.682,91a3.682,3.682,0,1,0,3.682,3.682A3.686,3.686,0,0,0,184.682,91Zm0,5.892a2.209,2.209,0,1,1,2.209-2.209A2.212,2.212,0,0,1,184.682,96.892Z" transform="translate(-142.635 -86.532)"/>
  </g>
</svg>
