<svg xmlns="http://www.w3.org/2000/svg" width="31.139" height="18.165" viewBox="0 0 31.139 18.165">
  <g id="Group_161389" data-name="Group 161389" transform="translate(0 -7)">
    <path id="Path_18028" data-name="Path 18028" d="M7.244,21.677H4.649a.649.649,0,1,1,0-1.3H7.244a.649.649,0,1,1,0,1.3Zm21.084,0H26.706a.649.649,0,1,1,0-1.3h1.083l.874-4.661A4.541,4.541,0,0,0,24.111,11.3h-4.26L17.787,20.38h3.729a.649.649,0,1,1,0,1.3H16.975a.649.649,0,0,1-.633-.791L18.7,10.506A.649.649,0,0,1,19.333,10h4.777a5.846,5.846,0,0,1,5.839,5.839l-.985,5.309a.647.647,0,0,1-.637.529Z" transform="translate(1.19 0.892)"/>
    <path id="Path_18029" data-name="Path 18029" d="M25.3,24.57a3.244,3.244,0,1,1,3.244-3.244A3.247,3.247,0,0,1,25.3,24.57Zm0-5.19a1.946,1.946,0,1,0,1.946,1.946A1.949,1.949,0,0,0,25.3,19.38ZM11.028,24.57a3.244,3.244,0,1,1,3.244-3.244A3.247,3.247,0,0,1,11.028,24.57Zm0-5.19a1.946,1.946,0,1,0,1.946,1.946A1.949,1.949,0,0,0,11.028,19.38ZM8.434,10.3H3.244a.649.649,0,1,1,0-1.3h5.19a.649.649,0,1,1,0,1.3Zm0,3.892H1.946a.649.649,0,1,1,0-1.3H8.434a.649.649,0,1,1,0,1.3Zm0,3.892H.649a.649.649,0,0,1,0-1.3H8.434a.649.649,0,1,1,0,1.3Z" transform="translate(0 0.595)"/>
    <path id="Path_18030" data-name="Path 18030" d="M16.975,22.57H12.434a.649.649,0,0,1,0-1.3h4.023L19.4,8.3H4.649a.649.649,0,0,1,0-1.3h15.57a.649.649,0,0,1,.633.791L17.608,22.064A.649.649,0,0,1,16.975,22.57Z" transform="translate(1.19)"/>
  </g>
</svg>
