<svg xmlns="http://www.w3.org/2000/svg" width="24" height="24" viewBox="0 0 24 24">
  <path id="Path_17809" data-name="Path 17809" d="M20.485,3.515A12,12,0,0,0,3.515,20.485,12,12,0,0,0,20.485,3.515ZM5.208,20.123A6.865,6.865,0,0,1,12,14.082a6.84,6.84,0,0,1,6.792,6.042,10.572,10.572,0,0,1-13.584,0ZM12,12.633a3.645,3.645,0,1,1,3.645-3.645A3.649,3.649,0,0,1,12,12.633Zm8,6.3a8.267,8.267,0,0,0-5.175-5.763,5.051,5.051,0,1,0-5.654,0A8.259,8.259,0,0,0,4,18.933a10.594,10.594,0,1,1,16.006,0Zm0,0"/>
</svg>
